<svg xmlns="http://www.w3.org/2000/svg" width="1280" height="720" viewBox="0 0 1280 720" role="img" aria-labelledby="title desc">
  <title id="title">Typed columns example</title>
  <desc id="desc">A table showing number, date, datetime, badge, and checkbox column types.</desc>
  <defs>
    <linearGradient id="bg" x1="0" y1="0" x2="1" y2="1">
      <stop offset="0" stop-color="#ecfdf5"/>
      <stop offset="1" stop-color="#f8fbff"/>
    </linearGradient>
    <filter id="shadow" x="-20%" y="-20%" width="140%" height="140%">
      <feDropShadow dx="0" dy="24" stdDeviation="24" flood-color="#172033" flood-opacity=".14"/>
    </filter>
  </defs>
  <rect width="1280" height="720" fill="url(#bg)"/>
  <rect x="92" y="86" width="1096" height="548" rx="18" fill="#ffffff" filter="url(#shadow)"/>
  <rect x="130" y="138" width="1020" height="390" rx="12" fill="#f8fafc" stroke="#d9e1ec"/>
  <rect x="130" y="138" width="1020" height="58" rx="12" fill="#edf3fb"/>
  <g fill="#334155" font-family="Segoe UI, Arial, sans-serif" font-size="15" font-weight="700">
    <text x="164" y="174">Invoice</text>
    <text x="316" y="174">Amount</text>
    <text x="494" y="174">Due</text>
    <text x="650" y="174">Updated</text>
    <text x="842" y="174">Status</text>
    <text x="1010" y="174">Approved</text>
  </g>
  <g stroke="#d9e1ec">
    <path d="M284 138v390M458 138v390M616 138v390M804 138v390M970 138v390"/>
    <path d="M130 196h1020M130 254h1020M130 312h1020M130 370h1020M130 428h1020M130 486h1020"/>
  </g>
  <g font-family="Segoe UI, Arial, sans-serif" font-size="15">
    <rect x="130" y="196" width="1020" height="58" fill="#ffffff"/>
    <text x="164" y="232" fill="#172033" font-weight="600">INV-001</text>
    <text x="346" y="232" fill="#172033" text-anchor="end">$1,250.00</text>
    <text x="494" y="232" fill="#475569">12 Jun 2026</text>
    <text x="650" y="232" fill="#475569">04 Jun 10:15</text>
    <rect x="842" y="212" width="66" height="28" rx="14" fill="#dcfce7"/>
    <text x="864" y="232" fill="#15803d" font-size="14" font-weight="700">Paid</text>
    <rect x="1040" y="214" width="22" height="22" rx="5" fill="#2563eb"/>
    <path d="M1046 225l6 6 14-15" fill="none" stroke="#fff" stroke-width="3" stroke-linecap="round" stroke-linejoin="round"/>
    <rect x="130" y="254" width="1020" height="58" fill="#f8fafc"/>
    <text x="164" y="290" fill="#172033" font-weight="600">INV-002</text>
    <text x="346" y="290" fill="#172033" text-anchor="end">$840.50</text>
    <text x="494" y="290" fill="#475569">18 Jun 2026</text>
    <text x="650" y="290" fill="#475569">04 Jun 09:00</text>
    <rect x="842" y="270" width="72" height="28" rx="14" fill="#fee2e2"/>
    <text x="858" y="290" fill="#b91c1c" font-size="14" font-weight="700">Overdue</text>
    <rect x="1040" y="272" width="22" height="22" rx="5" fill="#fff" stroke="#94a3b8"/>
    <rect x="130" y="312" width="1020" height="58" fill="#ffffff"/>
    <text x="164" y="348" fill="#172033" font-weight="600">INV-003</text>
    <text x="346" y="348" fill="#172033" text-anchor="end">$3,420.00</text>
    <text x="494" y="348" fill="#475569">21 Jun 2026</text>
    <text x="650" y="348" fill="#475569">03 Jun 16:30</text>
    <rect x="842" y="328" width="62" height="28" rx="14" fill="#e5e7eb"/>
    <text x="858" y="348" fill="#475569" font-size="14" font-weight="700">Draft</text>
    <rect x="1040" y="330" width="22" height="22" rx="5" fill="#2563eb"/>
    <path d="M1046 341l6 6 14-15" fill="none" stroke="#fff" stroke-width="3" stroke-linecap="round" stroke-linejoin="round"/>
  </g>
  <text x="130" y="585" fill="#64748b" font-family="Segoe UI, Arial, sans-serif" font-size="15">Typed columns format values while preserving the original row data.</text>
</svg>
